<svg version="1.1" xmlns="http://www.w3.org/2000/svg" viewBox="0 0 119.50550163138416 167.8906559504323" width="358.5165048941525" height="503.67196785129687">
  <!-- svg-source:excalidraw -->
  
  <defs>
    <style class="style-fonts">
      @font-face {
        font-family: "Virgil";
        src: url("https://excalidraw.com/Virgil.woff2");
      }
      @font-face {
        font-family: "Cascadia";
        src: url("https://excalidraw.com/Cascadia.woff2");
      }
      @font-face {
        font-family: "Assistant";
        src: url("https://excalidraw.com/Assistant-Regular.woff2");
      }
    </style>
    <clipPath id="rTM3xD9A1OrNqBHWDWoc7">
            <rect transform="translate(0 0) rotate(0 59.75275081569208 83.94532797521614)" width="119.50550163138416" height="167.8906559504323">
          </rect>
        </clipPath>
  </defs>
  <rect x="0" y="0" width="119.50550163138416" height="167.8906559504323" fill="#ffffff"></rect><g clip-path="url(#rTM3xD9A1OrNqBHWDWoc7)"><g transform="translate(51.04612582418747 14.573841662363861) rotate(0 3.605780409677152 7.409137634517322)"><text x="3.6057804096771537" y="10.384647308539478" font-family="Virgil, Segoe UI Emoji" font-size="11.854620215227714px" fill="#1e1e1e" text-anchor="middle" style="white-space: pre;" direction="ltr" dominant-baseline="alphabetic">S</text></g></g><g clip-path="url(#rTM3xD9A1OrNqBHWDWoc7)"><g stroke-linecap="round"><g transform="translate(49.84253848528465 26.815868658749537) rotate(0 -8.161351330923821 6.121013498192838)"><path d="M0.47 0.27 C-2.27 2.32, -13.6 9.79, -16.47 11.8 M0.05 -0.06 C-2.77 2.08, -14.36 10.1, -16.98 12.28" stroke="#1e1e1e" stroke-width="1" fill="none"></path></g></g><mask></mask></g><g clip-path="url(#rTM3xD9A1OrNqBHWDWoc7)"><g stroke-linecap="round"><g transform="translate(54.59928741465535 26.829390051872792) rotate(0 -0.14573841662371478 6.558228748063755)"><path d="M-0.03 -0.42 C-0.11 1.75, -0.78 11.19, -0.79 13.45 M-0.7 0.55 C-0.6 2.53, 0.13 10.45, 0.18 12.66" stroke="#1e1e1e" stroke-width="1" fill="none"></path></g></g><mask></mask></g><g clip-path="url(#rTM3xD9A1OrNqBHWDWoc7)"><g stroke-linecap="round"><g transform="translate(73.54528157572815 37.90550971526932) rotate(0 -6.412490331440097 -5.829536664945579)"><path d="M0.11 -0.48 C-1.87 -2.4, -10.21 -9.74, -12.41 -11.53 M-0.5 0.46 C-2.47 -1.63, -10.45 -10.34, -12.63 -12.42" stroke="#1e1e1e" stroke-width="1" fill="none"></path></g></g><mask></mask></g><g clip-path="url(#rTM3xD9A1OrNqBHWDWoc7)"><g transform="translate(25.104308316232505 42.55561765410255) rotate(0 3.324398899504729 6.233248085183561)"><text x="3.3243988995047173" y="8.736520516193279" font-family="Virgil, Segoe UI Emoji" font-size="9.973196936293698px" fill="#e03131" text-anchor="middle" style="white-space: pre;" direction="ltr" dominant-baseline="alphabetic">a</text></g></g><g clip-path="url(#rTM3xD9A1OrNqBHWDWoc7)"><g transform="translate(49.18249668296596 43.90076723334823) rotate(0 3.2833333015441895 6.233248085183561)"><text x="3.2833333015441895" y="8.736520516193279" font-family="Virgil, Segoe UI Emoji" font-size="9.973196936293698px" fill="#1e1e1e" text-anchor="middle" style="white-space: pre;" direction="ltr" dominant-baseline="alphabetic">A</text></g></g><g clip-path="url(#rTM3xD9A1OrNqBHWDWoc7)"><g transform="translate(72.95083306490551 42.151906233864565) rotate(0 2.5416667461395264 6.233248085183561)"><text x="2.5416667461395264" y="8.736520516193279" font-family="Virgil, Segoe UI Emoji" font-size="9.973196936293698px" fill="#e03131" text-anchor="middle" style="white-space: pre;" direction="ltr" dominant-baseline="alphabetic">b</text></g></g><g clip-path="url(#rTM3xD9A1OrNqBHWDWoc7)"><g stroke-linecap="round"><g transform="translate(63.679904253966356 71.26967186432421) rotate(0 -3.497721998967336 -6.8497055813110705)"><path d="M0.02 -0.17 C-1.26 -2.47, -6.07 -11.16, -7.17 -13.45 M-0.64 -0.73 C-2.04 -3.22, -6.67 -12.17, -7.7 -14.29" stroke="#1e1e1e" stroke-width="1" fill="none"></path></g></g><mask></mask></g><g clip-path="url(#rTM3xD9A1OrNqBHWDWoc7)"><g stroke-linecap="round"><g transform="translate(52.26747274867671 57.43445754283687) rotate(0 -3.934937248838253 8.015612914300164)"><path d="M-0.37 -0.42 C-1.73 2.18, -6.79 12.88, -8.05 15.59 M0.44 0.56 C-1.02 3.21, -7.11 13.44, -8.58 16.07" stroke="#1e1e1e" stroke-width="1" fill="none"></path></g></g><mask></mask></g><g clip-path="url(#rTM3xD9A1OrNqBHWDWoc7)"><g transform="translate(37.682136241984836 74.79731155755996) rotate(0 2.5416667461395264 6.233248085183561)"><text x="2.5416667461395264" y="8.736520516193279" font-family="Virgil, Segoe UI Emoji" font-size="9.973196936293698px" fill="#e03131" text-anchor="middle" style="white-space: pre;" direction="ltr" dominant-baseline="alphabetic">b</text></g></g><g clip-path="url(#rTM3xD9A1OrNqBHWDWoc7)"><g transform="translate(64.92224567831897 73.63140422457047) rotate(0 3.2833333015441895 6.233248085183561)"><text x="3.2833333015441895" y="8.736520516193279" font-family="Virgil, Segoe UI Emoji" font-size="9.973196936293698px" fill="#1e1e1e" text-anchor="middle" style="white-space: pre;" direction="ltr" dominant-baseline="alphabetic">A</text></g></g><g clip-path="url(#rTM3xD9A1OrNqBHWDWoc7)"><g stroke-linecap="round"><g transform="translate(80.78982917110272 101.08358467801304) rotate(0 -3.497721998967336 -6.8497055813110705)"><path d="M0.23 -0.27 C-0.98 -2.57, -6.16 -11.12, -7.38 -13.44 M-0.31 0.78 C-1.34 -1.72, -5.15 -11.83, -6.34 -14.28" stroke="#1e1e1e" stroke-width="1" fill="none"></path></g></g><mask></mask></g><g clip-path="url(#rTM3xD9A1OrNqBHWDWoc7)"><g stroke-linecap="round"><g transform="translate(66.15434601712457 85.73923452461588) rotate(0 -3.934937248838253 8.015612914300164)"><path d="M0.28 -0.03 C-1.11 2.58, -6.4 13.55, -7.8 16.18 M-0.25 -0.53 C-1.74 2.15, -6.8 12.5, -8.19 15.28" stroke="#1e1e1e" stroke-width="1" fill="none"></path></g></g><mask></mask></g><g clip-path="url(#rTM3xD9A1OrNqBHWDWoc7)"><g transform="translate(52.6391530839727 101.61318021630927) rotate(0 3.324398899504729 6.233248085183561)"><text x="3.3243988995047173" y="8.736520516193279" font-family="Virgil, Segoe UI Emoji" font-size="9.973196936293698px" fill="#e03131" text-anchor="middle" style="white-space: pre;" direction="ltr" dominant-baseline="alphabetic">a</text></g></g><g clip-path="url(#rTM3xD9A1OrNqBHWDWoc7)"><g transform="translate(79.49608734068306 104.23647171553495) rotate(0 3.2833333015441895 6.233248085183561)"><text x="3.2833333015441895" y="8.736520516193279" font-family="Virgil, Segoe UI Emoji" font-size="9.973196936293698px" fill="#1e1e1e" text-anchor="middle" style="white-space: pre;" direction="ltr" dominant-baseline="alphabetic">A</text></g></g><g clip-path="url(#rTM3xD9A1OrNqBHWDWoc7)"><g stroke-linecap="round"><g transform="translate(82.79186861957032 117.36437822597321) rotate(0 -0.14573841662371478 6.558228748063755)"><path d="M-0.11 0.24 C-0.2 2.41, -0.23 11.32, -0.34 13.38 M-0.83 -0.12 C-1.01 1.86, -0.98 10.38, -0.79 12.55" stroke="#1e1e1e" stroke-width="1" fill="none"></path></g></g><mask></mask></g><g clip-path="url(#rTM3xD9A1OrNqBHWDWoc7)"><g transform="translate(79.80309158576733 132.9469397903918) rotate(0 2.8525484652803925 7.107678584925367)"><text x="0" y="9.962122304631393" font-family="Virgil, Segoe UI Emoji" font-size="11.372285735880586px" fill="#1e1e1e" text-anchor="start" style="white-space: pre;" direction="ltr" dominant-baseline="alphabetic">ε</text></g></g></svg>